<svg width="48" height="48" viewBox="0 0 48 48" fill="none" xmlns="http://www.w3.org/2000/svg">
<path d="M25.5 18.5C25.8978 18.5 26.2794 18.658 26.5607 18.9393C26.842 19.2206 27 19.6022 27 20C27 20.3978 26.842 20.7794 26.5607 21.0607C26.2794 21.342 25.8978 21.5 25.5 21.5H14.5C14.1022 21.5 13.7206 21.342 13.4393 21.0607C13.158 20.7794 13 20.3978 13 20C13 19.6022 13.158 19.2206 13.4393 18.9393C13.7206 18.658 14.1022 18.5 14.5 18.5H25.5Z" fill="white"/>
<path d="M34.5 20C34.4992 16.7098 33.3795 13.5177 31.3247 10.948C29.27 8.37833 26.4024 6.58386 23.1929 5.85935C19.9835 5.13484 16.6231 5.52338 13.6637 6.96115C10.7043 8.39892 8.32182 10.8004 6.90767 13.7712C5.49352 16.742 5.13176 20.1054 5.8818 23.3089C6.63185 26.5125 8.44911 29.3657 11.0351 31.3999C13.6211 33.4342 16.822 34.5284 20.1121 34.503C23.4022 34.4776 26.5858 33.334 29.14 31.26L38.94 41.06L39.1 41.2C39.4036 41.4257 39.7813 41.5283 40.1574 41.4873C40.5335 41.4463 40.8802 41.2648 41.1281 40.9789C41.3759 40.6931 41.5066 40.3242 41.494 39.9461C41.4814 39.568 41.3264 39.2086 41.06 38.94L31.26 29.14C33.3613 26.5579 34.5059 23.3291 34.5 20ZM8.50001 20C8.50001 18.4898 8.79746 16.9944 9.37539 15.5991C9.95332 14.2039 10.8004 12.9362 11.8683 11.8683C12.9361 10.8004 14.2039 9.95332 15.5991 9.37539C16.9944 8.79746 18.4898 8.5 20 8.5C21.5102 8.5 23.0056 8.79746 24.4009 9.37539C25.7961 9.95332 27.0639 10.8004 28.1317 11.8683C29.1996 12.9362 30.0467 14.2039 30.6246 15.5991C31.2025 16.9944 31.5 18.4898 31.5 20C31.5 23.05 30.2884 25.9751 28.1317 28.1317C25.9751 30.2884 23.05 31.5 20 31.5C16.95 31.5 14.0249 30.2884 11.8683 28.1317C9.71161 25.9751 8.50001 23.05 8.50001 20Z" fill="white"/>
</svg>
