<svg width="48" height="48" viewBox="0 0 48 48" fill="none" xmlns="http://www.w3.org/2000/svg">
<path d="M27 20C27 19.6022 26.842 19.2206 26.5607 18.9393C26.2794 18.658 25.8978 18.5 25.5 18.5H21.5V14.5C21.5 14.1022 21.342 13.7206 21.0607 13.4393C20.7794 13.158 20.3978 13 20 13C19.6022 13 19.2206 13.158 18.9393 13.4393C18.658 13.7206 18.5 14.1022 18.5 14.5V18.5H14.5C14.1022 18.5 13.7206 18.658 13.4393 18.9393C13.158 19.2206 13 19.6022 13 20C13 20.3978 13.158 20.7794 13.4393 21.0607C13.7206 21.342 14.1022 21.5 14.5 21.5H18.5V25.5C18.5 25.8978 18.658 26.2794 18.9393 26.5607C19.2206 26.842 19.6022 27 20 27C20.3978 27 20.7794 26.842 21.0607 26.5607C21.342 26.2794 21.5 25.8978 21.5 25.5V21.5H25.5C26.32 21.5 27 20.82 27 20Z" fill="white"/>
<path d="M20 5.5C22.7405 5.49935 25.4252 6.27538 27.7427 7.73813C30.0602 9.20088 31.9158 11.2905 33.0943 13.7647C34.2728 16.2389 34.726 18.9964 34.4013 21.7177C34.0767 24.4389 32.9875 27.0125 31.26 29.14L41.06 38.94C41.3264 39.2086 41.4814 39.568 41.494 39.9461C41.5066 40.3242 41.3759 40.6931 41.1281 40.9789C40.8802 41.2647 40.5335 41.4463 40.1574 41.4873C39.7813 41.5283 39.4036 41.4257 39.1 41.2L38.94 41.06L29.14 31.26C27.3378 32.7222 25.211 33.7304 22.9383 34.2C20.6656 34.6696 18.3133 34.5869 16.0792 33.9587C13.8451 33.3305 11.7945 32.1752 10.0995 30.59C8.4046 29.0047 7.11493 27.0358 6.3389 24.8486C5.56288 22.6615 5.32316 20.32 5.6399 18.021C5.95663 15.722 6.82057 13.5326 8.15911 11.6368C9.49765 9.74096 11.2717 8.19412 13.3321 7.12625C15.3926 6.05838 17.6793 5.50068 20 5.5ZM20 8.5C18.4898 8.5 16.9944 8.79746 15.5991 9.37539C14.2039 9.95331 12.9361 10.8004 11.8683 11.8683C10.8004 12.9361 9.9533 14.2039 9.37537 15.5991C8.79745 16.9944 8.49999 18.4898 8.49999 20C8.49999 21.5102 8.79745 23.0056 9.37537 24.4009C9.9533 25.7961 10.8004 27.0639 11.8683 28.1317C12.9361 29.1996 14.2039 30.0467 15.5991 30.6246C16.9944 31.2025 18.4898 31.5 20 31.5C23.05 31.5 25.975 30.2884 28.1317 28.1317C30.2884 25.9751 31.5 23.05 31.5 20C31.5 16.95 30.2884 14.0249 28.1317 11.8683C25.975 9.7116 23.05 8.5 20 8.5Z" fill="white"/>
</svg>
