<svg width="35" height="34" viewBox="0 0 35 34" fill="none" xmlns="http://www.w3.org/2000/svg">
<path d="M25.7568 14.1666C25.7575 11.7692 24.9474 9.44201 23.4581 7.56326C21.9688 5.68452 19.8879 4.36468 17.5536 3.81823C15.2193 3.27178 12.7688 3.53086 10.6003 4.55336C8.43187 5.57585 6.67297 7.30166 5.60946 9.45029C4.54596 11.5989 4.24038 14.0441 4.74239 16.3884C5.24439 18.7326 6.52448 20.8382 8.37459 22.3629C10.2247 23.8877 12.5361 24.7418 14.9331 24.7867C17.3301 24.8315 19.6718 24.0644 21.5777 22.61L28.2927 29.3391L28.4343 29.4525C28.7186 29.6814 29.0803 29.7918 29.444 29.7607C29.8077 29.7295 30.1453 29.5591 30.3865 29.2851C30.6276 29.011 30.7537 28.6545 30.7384 28.2898C30.7231 27.9251 30.5676 27.5803 30.3043 27.3275L23.5752 20.6125C24.9922 18.7626 25.7591 16.4968 25.7568 14.1666ZM20.0902 12.75C20.4659 12.75 20.8262 12.8992 21.0919 13.1649C21.3576 13.4306 21.5068 13.7909 21.5068 14.1666C21.5068 14.5424 21.3576 14.9027 21.0919 15.1684C20.8262 15.434 20.4659 15.5833 20.0902 15.5833H10.1735C9.79779 15.5833 9.43746 15.434 9.17178 15.1684C8.9061 14.9027 8.75685 14.5424 8.75685 14.1666C8.75685 13.7909 8.9061 13.4306 9.17178 13.1649C9.43746 12.8992 9.79779 12.75 10.1735 12.75H20.0902Z" fill="white"/>
</svg>
