<svg width="35" height="34" viewBox="0 0 35 34" fill="none" xmlns="http://www.w3.org/2000/svg">
<path d="M25.66 14.1666C25.66 16.5891 24.8525 18.8275 23.4784 20.6125L30.2075 27.3275C30.4708 27.5803 30.6263 27.9251 30.6416 28.2898C30.6569 28.6545 30.5308 29.011 30.2897 29.2851C30.0485 29.5591 29.7109 29.7295 29.3472 29.7607C28.9835 29.7918 28.6218 29.6814 28.3375 29.4525L28.1959 29.3391L21.4809 22.61C19.575 24.0644 17.2333 24.8315 14.8363 24.7867C12.4393 24.7418 10.1279 23.8877 8.27779 22.3629C6.42767 20.8382 5.14759 18.7326 4.64559 16.3884C4.14358 14.0441 4.44916 11.5989 5.51266 9.45029C6.57616 7.30166 8.33507 5.57585 10.5035 4.55336C12.672 3.53086 15.1225 3.27178 17.4568 3.81823C19.7911 4.36468 21.872 5.68452 23.3613 7.56326C24.8506 9.44201 25.6607 11.7692 25.66 14.1666ZM15.035 7.79163C14.6593 7.79163 14.299 7.94089 14.0333 8.20656C13.7676 8.47224 13.6184 8.83257 13.6184 9.2083V12.75H10.0767C9.70099 12.75 9.34065 12.8992 9.07498 13.1649C8.8093 13.4306 8.66005 13.7909 8.66005 14.1666C8.66005 14.5424 8.8093 14.9027 9.07498 15.1684C9.34065 15.434 9.70099 15.5833 10.0767 15.5833H13.6184V19.125C13.6184 19.5007 13.7676 19.861 14.0333 20.1267C14.299 20.3924 14.6593 20.5416 15.035 20.5416C15.4108 20.5416 15.7711 20.3924 16.0368 20.1267C16.3025 19.861 16.4517 19.5007 16.4517 19.125V15.5833H19.9934C20.3691 15.5833 20.7294 15.434 20.9951 15.1684C21.2608 14.9027 21.41 14.5424 21.41 14.1666C21.41 13.7909 21.2608 13.4306 20.9951 13.1649C20.7294 12.8992 20.3691 12.75 19.9934 12.75H16.4517V9.2083C16.4517 8.83257 16.3025 8.47224 16.0368 8.20656C15.7711 7.94089 15.4108 7.79163 15.035 7.79163Z" fill="white"/>
</svg>
