<svg width="29" height="45" viewBox="0 0 29 45" fill="none" xmlns="http://www.w3.org/2000/svg">
<path d="M2.4375 18.4687C0.3125 20.5937 0.3125 24.0312 2.4375 26.1562L19.375 43.0937C21.5 45.2187 24.9375 45.2187 27.0625 43.0937C29.1875 40.9687 29.1875 37.5312 27.0625 35.4062L10.0625 18.4687C7.9375 16.3438 4.5625 16.3438 2.4375 18.4687Z" fill="#F251D0"/>
<path d="M2.4375 26.1563C4.5625 28.2813 8 28.2813 10.125 26.1563L27 9.28125C29.125 7.15625 29.125 3.71875 27 1.59375C24.875 -0.53125 21.4375 -0.53125 19.3125 1.59375L2.4375 18.4688C0.3125 20.5938 0.3125 24.0313 2.4375 26.1563Z" fill="#2475EA"/>
</svg>
